<svg width="152" height="123" viewBox="0 0 152 123" fill="none" xmlns="http://www.w3.org/2000/svg">
<path d="M88.5772 96.5227C97.5935 90.2813 104.413 81.4532 109.013 71.5922C110.461 68.4846 111.792 64.4623 110.496 61.276C107.735 54.4875 100.009 60.6851 97.2302 63.7533C90.945 70.6905 80.9352 86.4559 85.579 96.0325C85.6447 96.1681 85.614 96.2776 85.4959 96.3651C65.7738 110.778 40.4888 122.6 15.3964 119.055C12.3107 118.617 9.11998 118.192 5.8286 117.777C5.46532 117.728 5.13705 117.982 5.08891 118.346V118.35C4.99699 119.138 5.74982 119.488 6.44572 119.628C14.5123 121.199 23.2616 122.272 31.4506 121.348C52.2713 119.007 69.6605 109.679 86.612 98.0064C86.7389 97.9189 86.8352 97.9451 86.9052 98.0808C90.7743 105.697 99.4492 105.206 106.255 102.379C142.25 87.4276 152.672 53.4283 151.967 17.4331C151.853 11.5507 152.011 6.28532 151.928 0.731104C151.923 0.319681 151.582 -0.0085826 151.17 0.000171086C151.017 0.00454793 150.873 0.0526932 150.746 0.144607C150.216 0.529769 150.26 1.29572 150.269 1.95662C150.448 15.2184 150.413 28.4584 148.645 41.6327C145.196 67.3291 131.89 88.4561 108.032 99.5689C102.102 102.331 92.0174 104.97 88.4546 96.9604C88.3758 96.7809 88.4196 96.6365 88.5772 96.5227ZM100.053 63.7139C101.576 62.1907 104.89 59.5559 107.152 60.2868C109.402 61.0134 109.302 64.4098 108.824 66.2568C106.885 73.7193 101.843 80.9236 96.8844 86.6879C94.1664 89.8392 91.1901 92.2684 87.8243 94.6844C87.5267 94.8945 87.1153 94.8244 86.9052 94.5312C86.8614 94.4699 86.8308 94.4043 86.8089 94.3299C84.0734 84.5564 93.4617 70.2879 100.053 63.7139Z" fill="#5FA8D3"/>
<path d="M3.10618 116.928C5.37776 116.122 9.90341 117.243 11.943 115.054C12.0481 114.945 12.1006 114.796 12.0918 114.643C12.0393 113.75 11.4703 113.645 10.7219 113.873C8.52033 114.551 6.02991 114.87 3.25499 114.827C1.98133 114.809 1.21976 115.277 0.979038 116.227C0.51947 118.022 3.91152 121.716 5.00136 122.701C6.02554 123.629 7.28606 122.21 6.17435 121.094C5.00573 119.913 3.94216 118.648 2.98801 117.295C2.90922 117.186 2.93549 117.037 3.04491 116.958C3.06679 116.945 3.08429 116.932 3.10618 116.928Z" fill="#5FA8D3"/>
</svg>
