<svg width="188" height="181" viewBox="0 0 188 181" fill="none" xmlns="http://www.w3.org/2000/svg">
<path d="M148.117 151.942L148.307 151.751C149.669 150.372 150.831 149.757 152.253 149.748C154.387 149.748 155.644 150.962 158.22 153.494C161.541 156.772 165.209 160.016 169.172 163.406C169.233 164.638 169.276 165.748 169.172 166.658L168.982 166.71C164.88 163.207 160.353 158.741 156.052 154.5L155.054 153.52C153.936 152.419 152.808 152.549 151.889 152.983C151.299 153.26 150.814 153.685 150.588 153.911L150.345 154.153L148.117 151.942Z" fill="white"/>
<path d="M136.99 148.7C138.378 148.821 139.557 148.882 140.832 148.908C140.884 150.001 140.849 151.059 140.771 151.943C139.496 151.952 138.334 151.839 136.947 151.631C136.86 150.434 136.843 149.628 136.99 148.7ZM140.494 145.5C141.881 145.621 143.061 145.682 144.335 145.708C144.387 146.801 144.353 147.859 144.275 148.743C143 148.752 141.838 148.639 140.45 148.431C140.372 147.234 140.355 146.428 140.494 145.5ZM150.44 154.129C148.81 155.429 147.544 156.531 146.946 157.511C146.469 158.3 146.26 158.898 146.521 159.228C147.24 160.13 149.66 161.283 152.218 162.445C152.418 163.642 152.513 164.752 152.504 165.766L152.409 165.845C150.284 164.995 147.336 163.416 145.818 161.517C144.674 160.078 144.361 158.499 144.318 156.869C144.491 155.317 145.627 153.938 148.567 151.605L148.801 151.423C149.859 150.582 150.761 151.119 151.169 151.64C151.533 152.099 151.793 153.053 150.761 153.886L150.44 154.129Z" fill="white"/>
<path d="M128.145 168.609L126.636 165.851L128.422 164.871C127.789 163.458 127.477 161.411 127.633 159.564C127.911 156.139 129.662 153.658 130.798 153.034C132.758 151.959 135.429 151.673 138.196 151.803L138.222 152.713C137.138 152.722 135.923 152.965 134.631 153.676C132.455 154.873 131.093 157.023 130.278 159.928C129.827 161.55 129.584 162.799 129.905 164.056L130.963 163.475C135.351 161.064 138.36 161.238 140.017 164.247C140.823 165.713 140.962 167.091 140.823 168.314C140.658 169.944 139.999 171.453 138.646 172.199C136.669 173.283 133.096 171.635 130.07 167.551L128.145 168.609ZM134.753 169.069C135.871 169.467 136.903 169.459 137.693 169.025C138.898 168.366 139.557 166.658 139.089 165.799C138.482 164.698 137.12 164.611 135.568 164.958C134.206 165.288 132.914 165.99 131.518 166.762C132.42 167.828 133.582 168.67 134.753 169.069Z" fill="white"/>
<path d="M111.859 180.776C111.096 179.068 110.619 177.646 110.359 176.648C110.073 175.582 110.142 174.116 110.35 173.171C110.853 171.436 111.79 169.988 113.169 169.624C114.192 169.355 115.484 169.823 116.663 170.803L116.854 170.751C117.617 169.303 118.71 168.072 120.47 167.603C121.771 167.257 122.768 167.655 123.289 169.017L123.384 168.991C124.381 166.918 126.289 166.06 127.902 165.626L128.31 165.522C129.619 165.175 130.226 166.034 130.391 166.667C130.539 167.239 130.4 168.219 129.116 168.557L128.31 168.774C126.159 169.373 124.59 170.37 123.887 172.312L123.081 174.532L121.424 175.66L121.294 175.564C121.841 173.795 122.187 172.425 121.997 171.714C121.797 170.977 121.182 170.656 120.444 170.855C119.759 171.038 119.04 171.489 118.511 172.104C117.843 172.945 117.912 173.665 117.825 176.327L116.62 177.533L116.455 177.472C116.447 176.666 116.325 175.729 116.143 175.061C115.666 173.258 114.088 172.685 112.952 172.989C112.284 173.162 111.79 173.683 111.981 174.394C112.223 175.322 112.917 176.761 113.594 178.079C113.134 179.042 112.614 179.944 112.024 180.785L111.859 180.776Z" fill="white"/>
<path d="M74.5259 171.305L74.9942 168.201L76.399 168.409C76.425 167.715 76.4944 167.134 76.5638 166.649C76.6852 165.851 77.7172 164.238 78.1161 163.778C81.6716 161.428 86.5366 160.422 90.1095 160.96C93.214 161.428 95.2173 162.816 96.3966 164.585C97.6541 166.484 97.9056 168.929 97.4893 171.678C97.1251 174.106 95.7116 177.246 94.0032 179.353L93.1446 178.798C94.5322 176.474 95.2953 174.549 95.5381 172.927C95.8503 170.863 95.4514 168.843 94.3847 167.342C93.136 165.591 91.1327 164.524 88.852 164.177C86.6146 163.839 83.9437 164.116 80.7957 165.105C79.6077 165.547 78.6277 165.998 78.3589 166.449C78.7405 167.698 81.2293 169.137 85.097 169.718L85.2445 170.065L83.1025 172.598L74.5259 171.305ZM87.5165 153.562C88.3664 154.655 89.1295 155.566 89.9794 156.511C89.2162 157.291 88.4184 157.994 87.716 158.532C86.8401 157.604 86.129 156.684 85.3399 155.522C86.1637 154.655 86.7447 154.091 87.5165 153.562ZM92.2514 153.953C93.1013 155.045 93.8644 155.956 94.7143 156.901C93.9511 157.682 93.1533 158.384 92.4509 158.922C91.575 157.994 90.8639 157.075 90.0748 155.913C90.8899 155.037 91.471 154.482 92.2514 153.953Z" fill="white"/>
<path d="M74.1619 170.51C73.3033 170.137 72.0632 169.721 70.6237 169.521L70.5717 169.634C71.6904 171.36 72.124 173.241 71.2654 175.201C70.8405 176.172 70.06 176.979 69.002 177.725C67.1722 179.017 65.0042 179.563 63.027 178.687C60.9371 177.768 59.8097 175.635 59.645 172.825L60.2693 172.565C61.0325 174.135 62.0211 175.054 63.6601 175.774C66.0449 176.823 68.2562 176.485 68.6031 175.696C69.0714 174.638 68.9327 173.241 68.0741 171.654C67.4931 170.596 66.5392 169.53 65.8888 169.244C64.1804 168.489 61.8303 168.29 58.7604 168.012L58.6997 167.847L61.1192 165.584C65.2037 165.879 66.9901 166.451 70.1294 166.755C72.3408 166.972 74.3527 167.162 76.1478 167.951L76.8415 168.255C78.0816 168.801 78.0209 169.842 77.7521 170.458C77.5179 170.995 76.7895 171.672 75.5754 171.134L74.1619 170.51Z" fill="white"/>
<path d="M59.5063 159.364C58.457 160.526 57.4944 161.983 56.6185 163.344L55.3177 165.365C52.8809 169.137 49.7503 174.895 47.7817 178.676C46.7237 179.049 45.3622 179.396 44.3476 179.561L44.2002 179.379C46.6717 174.601 49.9324 169.319 53.037 164.506C53.8521 163.249 54.6846 162.035 55.3784 161.194C56.1762 160.101 57.2862 159.589 59.3328 159.043L59.5063 159.364Z" fill="white"/>
<path d="M41.6424 145.334L41.9892 145.646C43.6282 147.129 44.3654 149.054 43.0125 151.977L43.0993 152.055C43.8711 151.491 44.7816 151.257 45.9957 151.491C47.8602 151.855 49.5339 152.48 50.7566 153.59C52.7945 155.437 52.8032 157.692 50.8694 159.825C50.4618 160.276 50.0455 160.701 49.5946 161.126L48.8314 160.536C50.1236 158.958 50.219 157.353 48.4759 155.775C47.5133 154.899 45.987 154.283 44.6862 153.997C43.6629 153.772 42.6657 153.85 42.2667 154.292C41.1481 155.532 39.6044 158.541 37.6446 162.426C36.6473 162.687 35.6587 162.973 34.6527 163.129L34.6094 162.955C36.3091 159.729 38.2863 156.417 40.2202 153.295C41.521 151.196 41.2001 149.176 39.8386 147.944L39.5264 147.667L41.6424 145.334Z" fill="white"/>
<path d="M40.0202 147.587C38.7541 145.93 37.6788 144.647 36.7075 144.031C35.927 143.546 35.3287 143.32 34.9991 143.58C34.0799 144.283 32.8918 146.685 31.6777 149.217C30.481 149.39 29.3623 149.468 28.3564 149.442L28.2783 149.347C29.1715 147.24 30.8019 144.317 32.7271 142.843C34.1926 141.724 35.7709 141.438 37.4013 141.43C38.9535 141.638 40.3064 142.791 42.5871 145.774L42.7692 146.008C43.5931 147.084 43.0381 147.968 42.5091 148.376C42.0408 148.731 41.0782 148.974 40.2717 147.925L40.0202 147.587ZM43.3763 139.166C43.3502 137.917 43.4543 136.599 43.6711 135.229C44.7031 135.125 45.7437 135.151 46.819 135.385C46.6803 136.695 46.6369 137.935 46.5762 139.227C45.4662 139.236 44.3822 139.227 43.3763 139.166Z" fill="white"/>
<path d="M6.99709 136.063C7.16186 136.011 7.32663 135.95 7.48272 135.872C8.77485 135.213 9.89354 133.678 11.0209 131.831C11.4979 132.005 12.1483 132.248 12.7726 132.62C15.3829 131.146 17.8718 129.802 20.5341 128.432C21.9996 127.686 23.7601 127.2 25.1649 126.975C27.1681 126.697 28.6597 126.793 30.0993 127.513C31.9811 128.449 33.8543 130.279 34.7648 132.057C35.8055 134.095 36.2304 136.219 36.5166 137.971L36.2737 138.092C33.5507 134.164 30.9318 131.302 28.4256 129.75C27.6104 130.305 26.5004 132.248 25.2256 134.502C23.7947 137 22.3725 139.714 20.6642 142.845C19.3113 145.325 18.4268 146.721 17.6983 147.085C17.2214 147.328 15.6431 147.224 15.0881 147.155L15.01 147.059C15.7038 145.654 16.3455 143.677 17.0132 141.535L18.6176 141.596C20.7509 137.997 22.6154 134.624 24.2283 132.169C24.9655 131.077 26.0321 130.088 27.5497 129.282L27.5064 129.134C26.2749 128.501 24.6446 128.388 22.6327 129.42C20.404 130.556 17.7243 132.178 14.0821 134.502C13.1195 135.049 11.7927 136.002 10.8041 136.505C10.1277 136.852 9.564 136.948 9.01766 136.835C8.33258 136.74 7.66483 136.505 6.9624 136.263L6.99709 136.063ZM38.936 127.426C39.6211 127.409 40.2629 127.435 40.8612 127.521C42.3268 129.533 43.8704 131.146 45.4053 132.369L45.362 132.447L44.1739 132.395C43.8357 132.326 43.2634 132.065 42.9425 131.753L42.8731 131.788C43.0899 132.976 42.7777 133.982 41.8412 134.468C41.2515 134.771 40.3496 134.736 39.3957 134.424C38.1903 133.965 37.2537 133.314 36.7941 132.412C36.3431 131.536 36.5946 130.773 37.1583 130.487C37.7306 130.201 38.3463 130.322 38.936 130.461L38.9621 130.504C38.6065 130.99 38.4071 131.363 38.4678 131.64C38.5024 131.814 38.6152 132.091 38.7453 132.352C39.1355 133.115 39.968 133.661 40.2889 133.488C41.3382 132.95 40.7485 130.938 40.0894 129.646C39.7079 128.9 39.2829 128.18 38.858 127.461L38.936 127.426Z" fill="white"/>
<path d="M28.3393 119.724C26.787 119.95 25.1133 120.444 23.5697 120.921L21.2716 121.632C16.979 122.968 10.8825 125.37 6.93678 127C5.88747 126.601 4.62136 125.994 3.73682 125.474L3.74549 125.24C8.70587 123.158 14.6028 121.199 20.0749 119.508C21.5057 119.065 22.9279 118.675 23.9946 118.467C25.3041 118.137 26.4921 118.467 28.4086 119.36L28.3393 119.724Z" fill="white"/>
<path d="M0.137892 89.1221C6.20829 89.0267 11.5416 88.966 17.4125 89.0614C18.5659 89.0788 19.9968 88.5845 20.5778 87.882C21.0027 87.3444 21.2629 86.5639 21.3062 85.4886V85.2197L24.4455 85.2718L24.4368 85.74C24.4108 87.5091 23.8211 88.8013 22.529 89.5644V89.6598C23.7777 89.8506 25.0525 90.1194 26.1712 90.579C27.3853 91.3595 28.2352 92.3568 28.9029 93.4494C29.9088 95.0364 30.3685 96.8402 30.3424 98.5833C30.3078 100.717 29.5446 102.477 28.1484 103.656C26.8303 104.766 24.9485 105.347 22.5723 105.313C20.5084 105.278 18.4531 104.584 16.4066 103.57L16.7621 102.694C18.1496 103.327 19.5978 103.769 21.0201 103.795C22.4683 103.821 23.7257 103.448 24.8444 102.607C26.2406 101.575 26.8737 100.136 26.8997 98.3925C26.9257 96.7448 26.4834 95.366 25.8157 94.1259C25.1739 92.9118 24.4281 91.9145 23.5263 91.4115C23.2574 91.3595 23.0146 91.2294 21.9046 91.2121C18.0716 91.1514 11.7063 91.2468 2.12378 91.6283C1.33463 90.8565 0.60618 90.1107 0.0078125 89.3129L0.137892 89.1221Z" fill="white"/>
<path d="M21.4186 85.5047C22.0776 83.0072 21.0543 81.8798 18.9817 80.5704C16.2587 78.862 15.2094 76.5813 15.6257 74.9856C15.9292 73.8236 16.5883 73.0517 17.9671 72.5574C18.9817 72.1932 20.0137 71.9244 23.0576 71.3607C24.315 71.1352 25.4771 70.0946 25.98 68.1694L26.0841 67.7705L29.128 68.5683L29.0066 69.0193C28.6423 70.3981 27.8358 71.5515 25.98 72.1325L25.954 72.2279C26.6738 72.5748 27.2288 72.9737 27.5583 73.4593C27.9486 74.0924 28.07 74.6908 27.9312 75.2371C27.4716 77.0756 25.3817 79.7205 22.8408 81.082L22.8148 81.1774C24.1589 82.2441 25.0521 84.0739 24.3757 86.6408L24.2803 86.9963C23.9334 88.3058 22.8928 88.4099 22.2511 88.2364C21.6787 88.089 20.8983 87.4733 21.2365 86.1898L21.4186 85.5047ZM23.1183 77.3964C24.0202 76.4945 24.8093 75.2284 25.0261 74.3959C25.1475 73.945 25.2082 73.5027 24.6619 73.3639C23.734 73.1211 22.3031 73.3553 21.1931 73.7195C19.5454 74.2745 18.5221 75.1764 18.2533 76.1997C17.9064 77.5092 18.5481 78.7406 19.6755 79.495C20.6121 79.4777 22.2511 78.281 23.1183 77.3964Z" fill="white"/>
<path d="M26.2838 67.6765C27.2724 65.8121 28.0182 64.2598 28.2177 61.4154L28.1309 61.372C26.9255 62.0137 25.1911 62.3953 23.7169 62.9243C22.9277 63.2018 22.208 63.566 22.0085 63.9389L21.653 64.6153L21.5749 64.6587L19.5283 62.4907L19.7972 61.7709C20.3261 59.8804 21.0372 57.7037 22.1733 55.5791C23.5088 53.0642 25.0784 51.113 26.596 49.8643L28.5559 51.8762L30.0388 57.5043L30.1255 57.5476C31.6778 56.507 32.9699 55.0761 33.9498 53.2377L34.4095 52.3705L37.1845 53.8447L36.8376 54.4951C35.5455 56.9233 33.2041 59.126 30.4637 60.366L30.4203 60.4528C30.932 64.147 30.3076 66.792 28.9201 69.3936L28.5645 70.07C27.9315 71.2667 26.8908 71.128 26.3011 70.8158C25.7808 70.5383 25.1651 69.7665 25.7808 68.5958L26.2838 67.6765ZM28.3477 58.675C28.1136 56.9146 27.8187 55.0588 27.2377 52.9688L27.151 52.9255C26.2318 53.9661 25.2692 55.1542 24.4627 56.6718C23.7169 58.0853 23.1619 59.4815 22.7196 60.895L22.8063 60.9384C23.3613 60.7303 24.0464 60.5395 24.7228 60.314C25.7722 59.9585 27.0383 59.4035 28.2957 58.7617L28.3477 58.675Z" fill="white"/>
<path d="M34.713 52.7093C35.1899 52.0849 35.6756 51.3131 35.875 50.1251C36.0138 49.1451 35.5888 48.2519 34.5742 47.4714C31.435 45.104 27.8794 42.6845 24.0638 40.2303C23.1098 39.6146 22.208 39.1029 21.4882 38.5479C21.0633 38.2184 20.7684 37.6807 20.6383 36.961C20.5169 36.432 20.4389 35.7816 20.3955 35.0705L20.595 35.0098C21.8264 36.0244 23.8036 36.5967 26.2578 36.8829C26.3185 37.49 26.3272 38.149 26.3011 38.8688C28.5905 40.5165 31.0794 42.1642 33.2301 43.8292C35.3287 45.4508 36.7682 46.9164 37.5054 48.382C38.1818 49.5527 38.6327 50.654 38.3899 51.8941C38.1904 52.9521 37.6788 54.0188 37.0891 54.7732L36.8636 55.0681C36.0398 56.1347 35.0338 55.8225 34.5135 55.4236C34.0452 55.0594 33.5683 54.1922 34.3834 53.1516L34.713 52.7093Z" fill="white"/>
<path d="M44.3475 46.5505C43.4022 45.3018 42.1621 44.079 40.9914 42.9603L39.257 41.2953C36.0137 38.1907 30.9579 34.0195 27.6192 31.3659C27.4544 30.2559 27.3764 28.851 27.4024 27.8277L27.6105 27.7236C31.8338 31.0537 36.4039 35.2683 40.5318 39.2227C41.6158 40.2633 42.6477 41.3126 43.3415 42.1538C44.2694 43.1424 44.5556 44.3305 44.703 46.4465L44.3475 46.5505Z" fill="white"/>
<path d="M65.5681 31.2267C62.4982 32.5969 59.6365 33.2993 57.1043 32.9178C54.5374 32.5275 52.3173 31.0359 51.1032 28.3043C50.2967 26.4831 49.8545 24.5319 50.0106 22.2859L51.0772 22.2685C51.216 23.7341 51.5022 24.9829 51.9444 25.9715C52.8723 28.0614 54.8582 29.3275 57.1129 29.6137C59.4457 29.8912 62.082 29.1281 64.8917 27.8793C67.5193 26.7086 70.3291 25.0609 72.7139 23.2225L72.4017 23.0057C71.1442 22.1124 70.5892 21.0458 70.1036 19.9444C69.3491 18.2361 68.9676 16.0681 69.774 13.77C70.3898 12.0182 71.4304 10.5353 72.2369 10.1798C73.0434 9.82423 74.4656 10.2925 75.9658 11.5066C76.9631 12.2957 77.7436 13.215 78.2379 14.3163C79.1571 16.3803 79.2699 18.2621 79.0618 20.2133C80.0243 20.0832 81.2384 19.7276 82.7387 19.0599L83.4585 18.739L84.7332 21.6095L84.0828 21.8956C81.9062 22.8669 80.1371 23.4132 76.833 23.6647C73.9453 26.5091 69.1757 29.6224 65.5681 31.2267ZM66.9643 3.24219C68.1871 3.50235 69.4445 3.9186 70.728 4.44759C70.5892 5.47089 70.3204 6.48551 69.8434 7.47412C68.5947 7.03185 67.4066 6.70231 66.1665 6.33809C66.4093 5.26276 66.6695 4.21345 66.9643 3.24219ZM77.7436 16.545C77.3794 15.7385 76.729 15.1141 76.3041 14.7673C75.168 13.848 74.1014 13.3277 73.1821 13.7353C71.4304 14.5158 70.6499 17.3602 70.9881 19.1987C71.8813 20.3607 73.3989 21.1672 75.5843 20.8897C76.9718 19.8144 78.1512 17.4643 77.7436 16.545Z" fill="white"/>
<path d="M107.792 22.0622L107.176 22.0882C104.133 22.2183 102.693 21.3424 102.025 19.9983L101.878 20.0069C100.577 21.6893 99.2068 22.4351 97.7846 22.4958C96.7266 22.5392 95.4865 22.2703 95.0269 20.5706H94.9315C93.8822 21.8194 92.5901 22.7126 90.7776 22.7907C89.4248 22.8514 88.5403 22.2443 88.3321 20.8048H88.2367C86.8145 22.6085 84.7679 23.0421 83.1029 23.1115L82.6867 23.1289C81.3338 23.1896 80.9262 22.2183 80.9002 21.5592C80.8742 20.9695 81.2298 20.0416 82.5566 19.9896L83.3891 19.9549C85.6178 19.8335 87.3088 19.1744 88.4709 17.4487L89.6156 15.4802L91.4801 14.7344L91.5841 14.8558C90.7169 16.5121 90.1099 17.7002 90.1359 18.4286C90.1706 19.1918 90.7516 19.6341 91.5148 19.5994C92.2259 19.5733 92.9977 19.2872 93.6134 18.7755C94.2117 18.3072 94.7841 17.4227 95.1136 16.5468L95.6426 15.0726L97.4724 14.136L97.5765 14.2314C96.9174 16.1306 96.6919 17.0498 96.7266 17.9517C96.7526 18.6108 97.2036 19.3565 98.1575 19.3132C98.964 19.2785 99.467 18.9663 99.8312 18.6975C100.542 18.1772 100.907 17.3533 101.149 16.278C101.227 15.8791 101.357 15.4108 101.557 14.3181L103.369 12.9826L103.473 13.052C103.196 14.1447 102.962 15.5322 103.005 16.4428C103.083 18.3853 104.809 19.0183 107.142 18.9229L107.679 18.8969L107.792 22.0622ZM94.2378 10.6759C93.1885 9.76532 92.2779 9.01086 91.2633 8.24772C91.8616 7.33716 92.512 6.49598 93.1017 5.83691C94.1424 6.5827 95.0096 7.35451 96.0068 8.34312C95.3564 9.34907 94.8968 10.0081 94.2378 10.6759ZM95.3391 5.39464C94.2898 4.48408 93.3792 3.72961 92.3559 2.96648C92.9543 2.05592 93.6047 1.21474 94.1944 0.555664C95.235 1.30146 96.1022 2.07326 97.0995 3.06187C96.4578 4.06782 95.9982 4.72689 95.3391 5.39464ZM98.9553 10.1556C97.906 9.245 96.9955 8.49054 95.9808 7.7274C96.5792 6.81684 97.2296 5.97566 97.8193 5.31659C98.8599 6.06238 99.7271 6.83419 100.724 7.8228C100.083 8.82875 99.6144 9.48782 98.9553 10.1556Z" fill="white"/>
<path d="M124.373 26.5536L123.896 26.4409C120.974 25.7645 119.768 23.7786 118.589 21.1336C118.034 19.9196 117.522 18.7662 117.097 17.9944L117.002 17.9684C116.117 21.6973 113.368 24.0128 106.587 22.4518L105.937 22.3044C104.618 22.0008 104.48 20.9602 104.627 20.3185C104.757 19.7461 105.347 18.9483 106.639 19.2432L107.593 19.46C109.535 19.9022 111.903 20.1017 113.707 19.4079C114.253 19.2085 115.077 18.8442 115.146 18.506C115.259 18.0031 115.172 17.4047 115.042 16.7716C114.53 14.3868 112.779 11.2823 110.81 8.13433C110.316 7.31049 109.917 6.64275 109.674 6.15712C109.7 5.73219 109.709 5.25523 109.813 4.80428C109.969 4.13654 110.359 3.52083 110.932 2.89645C111.2 2.6016 111.634 2.35011 111.998 2.21136C114.86 1.17939 120.956 0.546336 128.007 0L128.067 0.164768C127.33 1.05798 126.48 1.89049 125.544 2.67965C124.026 2.70566 121.806 2.93113 119.656 3.19129C116.534 3.60755 113.585 4.05849 111.703 4.56147L111.686 4.63084C112.787 5.76688 114.036 6.68611 114.938 7.34518L113.941 8.37715C115.97 11.2909 118.207 15.3321 120.592 19.8936C121.572 21.784 122.734 22.9548 124.651 23.397L125.058 23.4924L124.373 26.5536Z" fill="white"/>
<path d="M124.772 23.8231C126.507 24.5776 128.614 24.673 129.507 23.537L131.224 21.395L133.271 20.944L133.34 21.1608C132.525 22.1755 131.918 23.06 131.701 23.5543C131.354 24.3435 131.276 25.0806 131.632 25.7483C132.1 26.6502 132.837 27.344 134.025 27.8643L134.433 28.0377L133.175 30.9168L132.655 30.6914C130.452 29.7288 129.048 28.3933 129.022 26.3727L128.935 26.338C127.513 27.5087 125.388 27.5261 123.454 26.6762L123.029 26.4854C121.789 25.9478 121.85 24.8985 122.11 24.2914C122.344 23.7538 123.073 23.0773 124.287 23.6063L124.772 23.8231ZM130.973 16.3739C130.435 15.0904 129.941 14.0151 129.36 12.8791C130.296 12.3241 131.25 11.8558 132.074 11.5176C132.681 12.6449 133.123 13.7203 133.592 15.0471C132.568 15.6715 131.857 16.0617 130.973 16.3739ZM135.447 17.9782C134.91 16.6948 134.416 15.6194 133.834 14.4834C134.771 13.9284 135.725 13.4601 136.549 13.1219C137.156 14.2493 137.598 15.3246 138.066 16.6514C137.034 17.2758 136.332 17.666 135.447 17.9782Z" fill="white"/>
<path d="M152.47 44.374L151.976 44.0098C149.521 42.206 148.949 40.6277 149.27 39.1535L149.149 39.0668C147.085 39.5611 145.541 39.2836 144.396 38.4337C143.546 37.8093 142.749 36.8207 143.451 35.2077L143.373 35.147C141.769 35.4592 140.208 35.3465 138.742 34.2712C137.658 33.4733 137.337 32.4501 138.083 31.1926L138.005 31.1319C135.768 31.6522 133.903 30.6983 132.55 29.7097L132.212 29.4582C131.128 28.6604 131.406 27.6458 131.805 27.1168C132.151 26.6398 133.01 26.1455 134.077 26.926L134.753 27.4203C136.565 28.7211 138.3 29.2674 140.277 28.6517L142.402 27.8366L144.318 28.4262L144.327 28.5823C142.619 29.3368 141.396 29.8745 140.962 30.4642C140.511 31.0799 140.693 31.791 141.3 32.2419C141.873 32.6669 142.653 32.9357 143.46 32.9183C144.214 32.927 145.22 32.5975 146.027 32.1205L147.362 31.3054L149.374 31.7216L149.391 31.8604C147.692 32.927 146.937 33.4994 146.4 34.2278C146.009 34.7655 145.897 35.624 146.66 36.1877C147.31 36.6646 147.9 36.734 148.342 36.76C149.227 36.8034 150.024 36.3785 150.883 35.7021C151.195 35.4419 151.594 35.1557 152.427 34.4273L154.673 34.5227L154.707 34.6441C153.805 35.3292 152.756 36.2571 152.218 36.9942C151.065 38.5551 152.01 40.1334 153.892 41.521L154.326 41.8418L152.47 44.374Z" fill="white"/>
<path d="M153.459 42.1704C154.829 43.74 155.991 44.9541 156.997 45.5091C157.803 45.9427 158.419 46.1248 158.731 45.856C159.599 45.0928 160.639 42.6213 161.688 40.011C162.868 39.7596 163.978 39.6121 164.992 39.5774L165.071 39.6728C164.316 41.8322 162.877 44.85 161.047 46.4543C159.659 47.6684 158.098 48.05 156.477 48.1627C154.916 48.0586 153.493 46.9833 151.022 44.1563L150.831 43.9308C149.947 42.9162 150.441 41.9883 150.935 41.5547C151.377 41.1644 152.323 40.8609 153.199 41.8668L153.459 42.1704ZM169.467 32.7266C169.571 33.9667 169.554 35.2935 169.424 36.6723C168.401 36.8458 167.36 36.8804 166.267 36.7244C166.319 35.4062 166.285 34.1661 166.267 32.874C167.377 32.7959 168.461 32.7266 169.467 32.7266Z" fill="white"/>
<path d="M166.337 66.5137L166.216 66.2708C165.322 64.5451 165.097 63.253 165.531 61.9002C166.19 59.8709 167.733 59.0471 170.933 57.3821C175.078 55.2314 179.293 52.7425 183.742 50.0195C184.93 50.3404 186.005 50.6439 186.829 51.0168L186.82 51.2163C182.224 54.0433 176.579 56.9658 171.211 59.7495L169.979 60.3999C168.583 61.1197 168.358 62.2384 168.496 63.2443C168.583 63.8947 168.835 64.4844 168.982 64.7619L169.138 65.0654L166.337 66.5137Z" fill="white"/>
<path d="M169.129 64.9774C169.866 66.9286 170.516 68.4722 171.262 69.3481C171.861 70.0419 172.372 70.4234 172.762 70.276C173.846 69.8684 175.685 67.9172 177.584 65.8446C178.781 66.0267 179.865 66.2695 180.827 66.5904L180.871 66.7031C179.405 68.4635 176.994 70.779 174.722 71.6375C172.997 72.2879 171.401 72.0971 169.84 71.6288C168.418 70.9784 167.455 69.4782 166.137 65.9573L166.033 65.6798C165.556 64.4137 166.345 63.7286 166.97 63.4945C167.525 63.2864 168.513 63.3384 168.973 64.5785L169.129 64.9774ZM187.435 61.7514C187.097 62.9568 186.62 64.1796 186.013 65.437C184.999 65.2376 184.001 64.908 183.047 64.3704C183.559 63.1563 183.958 61.9856 184.4 60.7715C185.45 61.0837 186.49 61.3959 187.435 61.7514Z" fill="white"/>
<path d="M175.841 89.096L172.762 89.7377L172.346 87.7432C170.802 87.9426 168.764 87.6391 167.039 86.9454C163.839 85.6792 161.983 83.2858 161.714 82.011C161.254 79.8257 161.757 77.1807 162.694 74.5791L163.57 74.8219C163.258 75.8626 163.145 77.094 163.44 78.5335C163.951 80.9617 165.608 82.8955 168.157 84.5259C169.58 85.4364 170.707 86.0261 171.999 86.0782L171.756 84.8988C170.733 79.9904 171.774 77.1634 175.138 76.4609C176.769 76.1227 178.13 76.3829 179.266 76.8772C180.784 77.5189 182.033 78.5856 182.345 80.0945C182.804 82.3058 180.185 85.237 175.399 86.9454L175.841 89.096ZM178.208 82.9042C178.911 81.9503 179.206 80.9617 179.023 80.0771C178.737 78.733 177.298 77.6056 176.335 77.8051C175.112 78.0652 174.627 79.34 174.505 80.927C174.419 82.3232 174.722 83.7714 175.052 85.3324C176.344 84.7774 177.488 83.9102 178.208 82.9042Z" fill="white"/>
<path d="M175.859 89.7477C175.841 90.6842 175.946 91.985 176.318 93.3899H176.44C177.593 91.6902 179.163 90.5628 181.296 90.5975C182.354 90.6149 183.403 91.0225 184.496 91.7075C186.395 92.8956 187.739 94.682 187.705 96.8414C187.67 99.1221 186.135 100.995 183.612 102.227L183.126 101.75C184.279 100.44 184.739 99.1741 184.765 97.379C184.808 94.7774 183.638 92.8696 182.77 92.8522C181.617 92.8349 180.377 93.5026 179.25 94.9075C178.495 95.8527 177.888 97.1449 177.879 97.856C177.853 99.7205 178.573 101.967 179.51 104.906L179.388 105.028L176.362 103.675C175.052 99.7985 174.879 97.9254 173.951 94.9162C173.301 92.7915 172.694 90.8664 172.72 88.9065L172.728 88.1433C172.754 86.7905 173.743 86.4436 174.402 86.4523C174.992 86.461 175.894 86.8686 175.876 88.1954L175.859 89.7477Z" fill="white"/>
<path d="M178.425 109.546C176.344 109.156 174.523 109.65 173.855 112.65C173.439 114.524 173.656 116.232 174.245 118.2C174.341 118.547 174.523 118.764 174.714 118.807C176.006 119.094 177.896 118.643 179.769 117.576C181.538 116.535 183.238 115.009 184.487 113.5C184.903 112.989 185.259 112.867 185.545 112.928C186.143 113.067 187.245 114.012 187.999 114.766L187.982 114.966C186.351 116.639 184.088 118.426 181.738 119.579C179.587 120.629 177.541 121.132 175.529 120.681C174.046 120.351 172.719 119.649 171.557 118.738C170.768 116.319 170.317 113.83 170.82 111.575C171.436 108.843 173.361 107.308 176.908 108.106C177.289 108.193 177.888 108.323 178.633 108.618L178.425 109.546Z" fill="white"/>
<path d="M95.797 115.335C97.3784 113.225 99.0972 110.884 100.752 109.126C102.619 107.135 109.464 100.67 112.34 101.664C112.458 101.706 112.52 101.834 112.478 101.951C112.46 101.998 112.429 102.04 112.387 102.066C110.941 102.974 109.268 103.798 108.009 104.688C103.708 107.725 100.082 111.805 97.232 116.201C96.5156 117.305 95.9922 118.496 95.6618 119.77C95.5309 120.276 95.2603 120.674 94.8522 120.968C94.7879 121.014 94.728 121.007 94.6748 120.948C93.5415 119.618 92.7697 118.617 92.3616 117.944C89.1257 112.596 85.1025 107.931 80.2875 103.948C79.2651 103.102 78.0231 102.523 76.5615 102.207C75.4947 101.976 75.9982 100.087 77.6461 100.884C79.1121 101.593 80.547 102.526 81.9509 103.681C85.9675 106.992 89.4118 110.681 92.284 114.747C92.3461 114.833 92.5945 115.021 92.661 115.059C92.9072 115.202 93.0558 115.136 93.109 114.856C93.5171 112.715 93.4772 110.533 93.5526 108.366C93.5969 107.069 93.6235 105.596 93.6346 103.95C93.7078 91.5209 93.5348 79.2174 94.0716 66.6466C94.147 64.9082 94.3998 62.3547 94.422 60.1745C94.4242 60.0751 94.5063 59.9978 94.6061 60C94.6704 60.0023 94.728 60.0376 94.7591 60.0928C94.8278 60.2187 94.8633 60.3733 94.87 60.5611C94.9454 62.8937 95.2404 65.4582 95.318 67.5567C95.4799 71.8993 95.562 75.4976 95.5664 78.3537C95.5864 90.6616 95.5908 102.965 95.5775 115.262C95.5775 115.328 95.6329 115.383 95.6995 115.383C95.7372 115.383 95.7749 115.366 95.797 115.335Z" fill="white"/>
</svg>
