<svg width="218" height="216" viewBox="0 0 218 216" fill="none" xmlns="http://www.w3.org/2000/svg">
<g opacity="0.3">
<path d="M216 106.184C216 165.278 168.094 213.184 109 213.184C49.9055 213.184 2 165.278 2 106.184C2 61.9457 28.8461 23.978 67.1353 7.68359" stroke="#5FA8D3" stroke-width="4" stroke-linecap="round"/>
<path d="M108 12.1836C159.362 12.1836 201 53.8211 201 105.184C201 156.546 159.362 198.184 108 198.184C56.6375 198.184 15 156.546 15 105.184C15 91.6467 17.8922 78.7853 23.0925 67.1836" stroke="#5FA8D3" stroke-width="4" stroke-linecap="round"/>
<path d="M41.3164 66.684C62.5794 29.8554 109.672 17.237 146.5 38.5C183.329 59.763 195.947 106.855 174.684 143.684C153.421 180.512 106.329 193.131 69.5004 171.868C59.794 166.264 51.7692 158.866 45.6033 150.334" stroke="#5FA8D3" stroke-width="4" stroke-linecap="round"/>
<path d="M76.3772 159.958C106.628 177.423 145.309 167.058 162.774 136.808C180.239 106.557 169.874 67.8762 139.624 50.4111C121.483 39.9376 100.311 39.4722 82.5001 47.3017" stroke="#5FA8D3" stroke-width="4" stroke-linecap="round"/>
<path d="M121.245 155.86C146.881 148.991 162.095 122.64 155.226 97.0037C148.356 71.3677 122.006 56.1541 96.3696 63.0233C80.9962 67.1426 69.3708 78.2678 64.0081 92.0435" stroke="#5FA8D3" stroke-width="4" stroke-linecap="round"/>
<path d="M141.943 117.097C146.945 98.43 135.867 79.2421 117.199 74.2402C98.5316 69.2383 79.3438 80.3164 74.3419 98.9838C71.3423 110.178 74.1254 121.56 80.8601 129.957" stroke="#5FA8D3" stroke-width="4" stroke-linecap="round"/>
<path d="M104.727 90.0921C94.7423 92.7674 88.8171 103.03 91.4924 113.015C94.1678 122.999 104.43 128.924 114.415 126.249C120.402 124.645 124.93 120.312 127.019 114.946" stroke="#5FA8D3" stroke-width="4" stroke-linecap="round"/>
<path d="M105.536 96.5325C110.377 95.2352 115.354 98.1085 116.651 102.95C117.949 107.792 115.075 112.769 110.234 114.066C107.33 114.844 104.378 114.122 102.2 112.375" stroke="#5FA8D3" stroke-width="4" stroke-linecap="round"/>
</g>
</svg>
