<svg width="100" height="87" viewBox="0 0 100 87" fill="none" xmlns="http://www.w3.org/2000/svg">
<path d="M50.1955 85.3222H25.8428L18.7195 72.9677L12.9985 63.0619L18.7195 53.1338" stroke="white" stroke-width="1.5" stroke-miterlimit="10"/>
<path d="M18.7199 53.1337H7.23359L1.5127 43.1611L9.61544 29.1148L12.9545 23.3494L18.7422 13.3546L24.4631 3.42637L25.8432 1H50.196" stroke="white" stroke-width="1.5" stroke-miterlimit="10"/>
<path d="M50.1957 75.3936H31.5861L24.4628 63.0614L18.7197 53.1333L24.5296 43.1606H12.9766L21.146 28.9808L24.4628 23.2599L30.1837 13.3541L31.5861 10.9277H50.1957" stroke="white" stroke-width="1.5" stroke-miterlimit="10"/>
<path d="M50.1959 20.9229H37.3517L24.5298 43.1609L37.3517 65.3989H50.1959" stroke="white" stroke-width="1.5" stroke-miterlimit="10"/>
<path d="M12.9766 43.1611L7.2334 53.1337" stroke="white" stroke-width="1.5" stroke-miterlimit="10"/>
<path d="M93.1582 53.1337L87.415 43.1611" stroke="white" stroke-width="1.5" stroke-miterlimit="10"/>
<path d="M50.1958 85.3222H74.5486L81.6719 72.9677L87.3928 63.0619L81.6719 53.1338" stroke="white" stroke-width="1.5" stroke-miterlimit="10"/>
<path d="M81.6719 53.1337L93.1804 53.0447L98.8791 43.1611L90.7763 29.1148L87.4373 23.3494L81.6496 13.3546L75.9287 3.42637L74.5486 1H50.1958" stroke="white" stroke-width="1.5" stroke-miterlimit="10"/>
<path d="M50.1958 75.3936H68.8054L75.9287 63.0614L81.6719 53.1333L75.8619 43.1606H87.415L79.2455 28.9808L75.9287 23.2599L70.2078 13.3541L68.8054 10.9277H50.1958" stroke="white" stroke-width="1.5" stroke-miterlimit="10"/>
<path d="M50.1958 20.9229H63.04L75.8619 43.1609L63.04 65.3989H50.1958" stroke="white" stroke-width="1.5" stroke-miterlimit="10"/>
<path d="M37.3518 20.9226L31.5864 10.9277" stroke="white" stroke-width="1.5" stroke-miterlimit="10"/>
<path d="M63.04 20.9226L68.8055 10.9277" stroke="white" stroke-width="1.5" stroke-miterlimit="10"/>
</svg>
