<svg width="188" height="181" viewBox="0 0 188 181" fill="none" xmlns="http://www.w3.org/2000/svg">
<path d="M148.118 151.942L148.308 151.751C149.67 150.372 150.832 149.756 152.254 149.748C154.388 149.748 155.645 150.962 158.221 153.494C161.542 156.772 165.21 160.015 169.173 163.406C169.234 164.637 169.277 165.747 169.173 166.658L168.983 166.71C164.881 163.206 160.354 158.74 156.053 154.5L155.055 153.52C153.937 152.419 152.809 152.549 151.89 152.982C151.3 153.26 150.815 153.685 150.589 153.91L150.346 154.153L148.118 151.942Z" fill="black"/>
<path d="M136.991 148.7C138.379 148.821 139.558 148.882 140.833 148.908C140.885 150.001 140.85 151.059 140.772 151.943C139.497 151.952 138.335 151.839 136.948 151.631C136.861 150.434 136.844 149.628 136.991 148.7ZM140.495 145.5C141.882 145.621 143.061 145.682 144.336 145.708C144.388 146.801 144.354 147.859 144.276 148.743C143.001 148.752 141.839 148.639 140.451 148.431C140.373 147.234 140.356 146.428 140.495 145.5ZM150.441 154.129C148.811 155.429 147.545 156.531 146.947 157.511C146.47 158.3 146.261 158.898 146.522 159.228C147.241 160.13 149.661 161.283 152.219 162.445C152.419 163.642 152.514 164.752 152.505 165.766L152.41 165.845C150.285 164.995 147.337 163.416 145.819 161.517C144.674 160.078 144.362 158.499 144.319 156.869C144.492 155.317 145.628 153.938 148.568 151.605L148.802 151.423C149.86 150.582 150.762 151.119 151.17 151.64C151.534 152.099 151.794 153.053 150.762 153.886L150.441 154.129Z" fill="black"/>
<path d="M128.146 168.609L126.637 165.851L128.423 164.871C127.79 163.458 127.478 161.411 127.634 159.564C127.911 156.139 129.663 153.658 130.799 153.034C132.759 151.959 135.43 151.673 138.196 151.803L138.223 152.713C137.139 152.722 135.924 152.965 134.632 153.676C132.456 154.873 131.094 157.023 130.279 159.928C129.828 161.55 129.585 162.799 129.906 164.056L130.964 163.475C135.352 161.064 138.361 161.238 140.018 164.247C140.824 165.713 140.963 167.091 140.824 168.314C140.659 169.944 140 171.453 138.647 172.199C136.67 173.283 133.097 171.635 130.071 167.551L128.146 168.609ZM134.754 169.069C135.872 169.467 136.904 169.459 137.694 169.025C138.899 168.366 139.558 166.658 139.09 165.799C138.483 164.698 137.121 164.611 135.569 164.958C134.207 165.288 132.915 165.99 131.519 166.762C132.421 167.828 133.583 168.67 134.754 169.069Z" fill="black"/>
<path d="M111.86 180.776C111.097 179.067 110.62 177.645 110.36 176.648C110.074 175.581 110.143 174.116 110.351 173.17C110.854 171.436 111.791 169.988 113.17 169.624C114.193 169.355 115.485 169.823 116.664 170.803L116.855 170.751C117.618 169.303 118.711 168.071 120.471 167.603C121.772 167.256 122.769 167.655 123.29 169.016L123.385 168.99C124.382 166.918 126.29 166.059 127.903 165.626L128.311 165.522C129.62 165.175 130.227 166.033 130.392 166.666C130.54 167.239 130.401 168.219 129.117 168.557L128.311 168.774C126.16 169.372 124.591 170.369 123.888 172.312L123.082 174.532L121.425 175.659L121.295 175.564C121.842 173.795 122.188 172.425 121.998 171.713C121.798 170.976 121.182 170.656 120.445 170.855C119.76 171.037 119.04 171.488 118.511 172.104C117.844 172.945 117.913 173.665 117.826 176.327L116.621 177.532L116.456 177.472C116.448 176.665 116.326 175.729 116.144 175.061C115.667 173.257 114.089 172.685 112.953 172.988C112.285 173.162 111.791 173.682 111.981 174.393C112.224 175.321 112.918 176.761 113.594 178.079C113.135 179.041 112.615 179.943 112.025 180.784L111.86 180.776Z" fill="black"/>
<path d="M74.5269 171.305L74.9951 168.2L76.4 168.408C76.426 167.715 76.4954 167.134 76.5648 166.648C76.6862 165.85 77.7181 164.237 78.1171 163.778C81.6726 161.428 86.5376 160.422 90.1104 160.959C93.215 161.428 95.2182 162.815 96.3976 164.584C97.6551 166.483 97.9066 168.929 97.4903 171.678C97.1261 174.106 95.7125 177.245 94.0042 179.353L93.1456 178.798C94.5331 176.473 95.2963 174.548 95.5391 172.927C95.8513 170.863 95.4524 168.842 94.3857 167.342C93.137 165.59 91.1337 164.523 88.853 164.177C86.6156 163.838 83.9446 164.116 80.7967 165.104C79.6086 165.547 78.6287 165.998 78.3599 166.449C78.7414 167.697 81.2303 169.137 85.098 169.718L85.2454 170.065L83.1035 172.597L74.5269 171.305ZM87.5175 153.562C88.3674 154.655 89.1305 155.565 89.9803 156.51C89.2172 157.291 88.4194 157.993 87.717 158.531C86.8411 157.603 86.13 156.684 85.3408 155.522C86.1647 154.655 86.7457 154.091 87.5175 153.562ZM92.2524 153.952C93.1023 155.045 93.8654 155.955 94.7153 156.901C93.9521 157.681 93.1543 158.384 92.4519 158.921C91.576 157.993 90.8649 157.074 90.0757 155.912C90.8909 155.036 91.4719 154.481 92.2524 153.952Z" fill="black"/>
<path d="M74.1628 170.51C73.3043 170.137 72.0642 169.721 70.6247 169.522L70.5726 169.634C71.6913 171.36 72.1249 173.242 71.2664 175.202C70.8415 176.173 70.061 176.979 69.003 177.725C67.1732 179.017 65.0052 179.564 63.028 178.688C60.9381 177.769 59.8107 175.635 59.6459 172.826L60.2703 172.565C61.0334 174.135 62.0221 175.054 63.6611 175.774C66.0459 176.823 68.2572 176.485 68.6041 175.696C69.0724 174.638 68.9336 173.242 68.0751 171.655C67.4941 170.597 66.5402 169.53 65.8898 169.244C64.1814 168.49 61.8313 168.29 58.7614 168.013L58.7007 167.848L61.1202 165.584C65.2047 165.879 66.9911 166.452 70.1304 166.755C72.3417 166.972 74.3536 167.163 76.1487 167.952L76.8425 168.255C78.0826 168.802 78.0219 169.842 77.7531 170.458C77.5189 170.996 76.7905 171.672 75.5764 171.135L74.1628 170.51Z" fill="black"/>
<path d="M59.5072 159.364C58.4579 160.526 57.4953 161.983 56.6195 163.344L55.3187 165.365C52.8818 169.137 49.7512 174.895 47.7827 178.676C46.7247 179.049 45.3632 179.396 44.3486 179.561L44.2012 179.379C46.6727 174.601 49.9334 169.319 53.0379 164.506C53.8531 163.249 54.6856 162.035 55.3794 161.194C56.1772 160.101 57.2872 159.589 59.3338 159.043L59.5072 159.364Z" fill="black"/>
<path d="M41.6433 145.334L41.9902 145.646C43.6292 147.129 44.3663 149.054 43.0135 151.977L43.1002 152.055C43.872 151.491 44.7826 151.257 45.9967 151.491C47.8612 151.855 49.5349 152.48 50.7576 153.59C52.7955 155.437 52.8042 157.692 50.8703 159.825C50.4628 160.276 50.0465 160.701 49.5956 161.126L48.8324 160.536C50.1245 158.958 50.2199 157.353 48.4769 155.775C47.5143 154.899 45.988 154.283 44.6872 153.997C43.6639 153.772 42.6666 153.85 42.2677 154.292C41.149 155.532 39.6054 158.541 37.6455 162.426C36.6483 162.687 35.6597 162.973 34.6537 163.129L34.6104 162.955C36.3101 159.729 38.2873 156.417 40.2211 153.295C41.5219 151.196 41.2011 149.176 39.8396 147.944L39.5274 147.667L41.6433 145.334Z" fill="black"/>
<path d="M40.0212 147.587C38.7551 145.931 37.6797 144.647 36.7085 144.032C35.928 143.546 35.3296 143.321 35.0001 143.581C34.0809 144.283 32.8928 146.685 31.6787 149.217C30.482 149.391 29.3633 149.469 28.3573 149.443L28.2793 149.348C29.1725 147.24 30.8028 144.318 32.728 142.844C34.1936 141.725 35.7719 141.439 37.4022 141.43C38.9545 141.638 40.3074 142.792 42.5881 145.775L42.7702 146.009C43.594 147.084 43.039 147.969 42.51 148.376C42.0418 148.732 41.0792 148.975 40.2727 147.925L40.0212 147.587ZM43.3772 139.167C43.3512 137.918 43.4553 136.6 43.6721 135.23C44.7041 135.125 45.7447 135.152 46.82 135.386C46.6813 136.695 46.6379 137.935 46.5772 139.227C45.4672 139.236 44.3832 139.227 43.3772 139.167Z" fill="black"/>
<path d="M6.99807 136.063C7.16283 136.011 7.3276 135.95 7.4837 135.872C8.77583 135.213 9.89451 133.678 11.0219 131.831C11.4988 132.005 12.1492 132.248 12.7736 132.62C15.3839 131.146 17.8727 129.802 20.535 128.432C22.0006 127.686 23.761 127.2 25.1659 126.975C27.1691 126.697 28.6607 126.793 30.1003 127.513C31.9821 128.449 33.8552 130.279 34.7658 132.057C35.8064 134.095 36.2314 136.219 36.5175 137.971L36.2747 138.092C33.5517 134.164 30.9328 131.302 28.4266 129.75C27.6114 130.305 26.5014 132.248 25.2266 134.502C23.7957 137 22.3735 139.714 20.6651 142.845C19.3123 145.325 18.4278 146.721 17.6993 147.085C17.2223 147.328 15.644 147.224 15.089 147.155L15.011 147.059C15.7047 145.654 16.3465 143.677 17.0142 141.535L18.6185 141.596C20.7518 137.997 22.6163 134.624 24.2293 132.169C24.9664 131.077 26.0331 130.088 27.5507 129.282L27.5073 129.134C26.2759 128.501 24.6456 128.388 22.6337 129.42C20.405 130.556 17.7253 132.178 14.0831 134.502C13.1205 135.049 11.7937 136.002 10.8051 136.505C10.1287 136.852 9.56498 136.948 9.01864 136.835C8.33355 136.74 7.66581 136.505 6.96338 136.263L6.99807 136.063ZM38.937 127.426C39.6221 127.409 40.2638 127.435 40.8622 127.521C42.3278 129.533 43.8714 131.146 45.4063 132.369L45.363 132.447L44.1749 132.395C43.8367 132.326 43.2643 132.065 42.9435 131.753L42.8741 131.788C43.0909 132.976 42.7787 133.982 41.8421 134.468C41.2524 134.771 40.3506 134.736 39.3966 134.424C38.1912 133.965 37.2547 133.314 36.795 132.412C36.3441 131.536 36.5956 130.773 37.1593 130.487C37.7316 130.201 38.3473 130.322 38.937 130.461L38.963 130.504C38.6075 130.99 38.408 131.363 38.4687 131.64C38.5034 131.814 38.6162 132.091 38.7462 132.352C39.1365 133.115 39.969 133.661 40.2899 133.488C41.3392 132.95 40.7495 130.938 40.0904 129.646C39.7088 128.9 39.2839 128.18 38.859 127.461L38.937 127.426Z" fill="black"/>
<path d="M28.3402 119.725C26.788 119.95 25.1143 120.445 23.5706 120.922L21.2726 121.633C16.9799 122.968 10.8835 125.37 6.93776 127.001C5.88845 126.602 4.62234 125.995 3.73779 125.474L3.74646 125.24C8.70685 123.159 14.6038 121.199 20.0758 119.508C21.5067 119.066 22.9289 118.676 23.9956 118.467C25.305 118.138 26.4931 118.467 28.4096 119.361L28.3402 119.725Z" fill="black"/>
<path d="M0.138869 89.1216C6.20926 89.0262 11.5425 88.9655 17.4135 89.0609C18.5669 89.0783 19.9977 88.584 20.5788 87.8815C21.0037 87.3439 21.2638 86.5634 21.3072 85.4881V85.2192L24.4465 85.2713L24.4378 85.7396C24.4118 87.5086 23.8221 88.8008 22.53 89.5639V89.6593C23.7787 89.8501 25.0535 90.1189 26.1722 90.5785C27.3863 91.359 28.2361 92.3563 28.9039 93.449C29.9098 95.0359 30.3694 96.8397 30.3434 98.5828C30.3087 100.716 29.5456 102.477 28.1494 103.656C26.8313 104.766 24.9494 105.347 22.5733 105.312C20.5094 105.278 18.4541 104.584 16.4075 103.569L16.7631 102.693C18.1506 103.326 19.5988 103.769 21.021 103.795C22.4693 103.821 23.7267 103.448 24.8454 102.607C26.2416 101.575 26.8746 100.135 26.9006 98.392C26.9267 96.7443 26.4844 95.3655 25.8166 94.1254C25.1749 92.9113 24.4291 91.914 23.5272 91.411C23.2584 91.359 23.0156 91.2289 21.9056 91.2116C18.0726 91.1509 11.7073 91.2463 2.12476 91.6278C1.3356 90.856 0.607157 90.1102 0.00878906 89.3124L0.138869 89.1216Z" fill="black"/>
<path d="M21.4195 85.5047C22.0786 83.0072 21.0553 81.8798 18.9827 80.5704C16.2597 78.862 15.2104 76.5813 15.6267 74.9856C15.9302 73.8236 16.5892 73.0517 17.9681 72.5574C18.9827 72.1932 20.0147 71.9244 23.0586 71.3607C24.316 71.1352 25.478 70.0946 25.981 68.1694L26.0851 67.7705L29.129 68.5683L29.0075 69.0193C28.6433 70.3981 27.8368 71.5515 25.981 72.1325L25.955 72.2279C26.6748 72.5748 27.2298 72.9737 27.5593 73.4593C27.9496 74.0924 28.071 74.6908 27.9322 75.2371C27.4726 77.0756 25.3826 79.7205 22.8418 81.082L22.8157 81.1774C24.1599 82.2441 25.0531 84.0739 24.3767 86.6408L24.2813 86.9963C23.9344 88.3058 22.8938 88.4099 22.2521 88.2364C21.6797 88.089 20.8992 87.4733 21.2374 86.1898L21.4195 85.5047ZM23.1193 77.3964C24.0211 76.4945 24.8103 75.2284 25.0271 74.3959C25.1485 73.945 25.2092 73.5027 24.6629 73.3639C23.735 73.1211 22.3041 73.3553 21.1941 73.7195C19.5464 74.2745 18.5231 75.1764 18.2543 76.1997C17.9074 77.5092 18.5491 78.7406 19.6765 79.495C20.6131 79.4777 22.2521 78.281 23.1193 77.3964Z" fill="black"/>
<path d="M26.2848 67.6761C27.2734 65.8116 28.0192 64.2593 28.2186 61.4149L28.1319 61.3715C26.9265 62.0132 25.1921 62.3948 23.7179 62.9238C22.9287 63.2013 22.2089 63.5655 22.0095 63.9384L21.6539 64.6148L21.5759 64.6582L19.5293 62.4902L19.7981 61.7704C20.3271 59.8799 21.0382 57.7033 22.1743 55.5786C23.5097 53.0637 25.0794 51.1125 26.597 49.8638L28.5568 51.8757L30.0398 57.5038L30.1265 57.5472C31.6788 56.5065 32.9709 55.0756 33.9508 53.2372L34.4104 52.37L37.1855 53.8442L36.8386 54.4946C35.5465 56.9228 33.205 59.1255 30.4647 60.3656L30.4213 60.4523C30.933 64.1465 30.3086 66.7915 28.9211 69.3931L28.5655 70.0695C27.9325 71.2663 26.8918 71.1275 26.3021 70.8153C25.7818 70.5378 25.1661 69.766 25.7818 68.5953L26.2848 67.6761ZM28.3487 58.6745C28.1146 56.9141 27.8197 55.0583 27.2387 52.9683L27.152 52.925C26.2327 53.9656 25.2702 55.1537 24.4637 56.6713C23.7179 58.0848 23.1629 59.481 22.7206 60.8946L22.8073 60.9379C23.3623 60.7298 24.0474 60.539 24.7238 60.3135C25.7731 59.958 27.0392 59.403 28.2967 58.7612L28.3487 58.6745Z" fill="black"/>
<path d="M34.7139 52.7093C35.1909 52.0849 35.6765 51.3131 35.876 50.1251C36.0147 49.1451 35.5898 48.2519 34.5752 47.4714C31.4359 45.104 27.8804 42.6845 24.0647 40.2303C23.1108 39.6146 22.2089 39.1029 21.4892 38.5479C21.0642 38.2184 20.7694 37.6807 20.6393 36.961C20.5179 36.432 20.4398 35.7816 20.3965 35.0705L20.5959 35.0098C21.8274 36.0244 23.8046 36.5967 26.2588 36.8829C26.3195 37.49 26.3281 38.149 26.3021 38.8688C28.5915 40.5165 31.0804 42.1642 33.231 43.8292C35.3297 45.4508 36.7692 46.9164 37.5063 48.382C38.1827 49.5527 38.6337 50.654 38.3909 51.8941C38.1914 52.9521 37.6798 54.0188 37.0901 54.7732L36.8646 55.0681C36.0408 56.1347 35.0348 55.8225 34.5145 55.4236C34.0462 55.0594 33.5692 54.1922 34.3844 53.1516L34.7139 52.7093Z" fill="black"/>
<path d="M44.3484 46.55C43.4032 45.3013 42.1631 44.0785 40.9924 42.9598L39.258 41.2948C36.0146 38.1902 30.9589 34.019 27.6201 31.3654C27.4554 30.2554 27.3773 28.8505 27.4033 27.8272L27.6115 27.7231C31.8347 31.0532 36.4049 35.2678 40.5327 39.2222C41.6167 40.2628 42.6487 41.3122 43.3425 42.1533C44.2704 43.1419 44.5566 44.33 44.704 46.446L44.3484 46.55Z" fill="black"/>
<path d="M65.5691 31.2262C62.4992 32.5964 59.6375 33.2988 57.1052 32.9173C54.5383 32.527 52.3183 31.0354 51.1042 28.3038C50.2977 26.4826 49.8555 24.5314 50.0115 22.2854L51.0782 22.2681C51.217 23.7336 51.5031 24.9824 51.9454 25.971C52.8733 28.0609 54.8592 29.3271 57.1139 29.6132C59.4467 29.8907 62.083 29.1276 64.8927 27.8788C67.5203 26.7081 70.33 25.0604 72.7148 23.222L72.4026 23.0052C71.1452 22.112 70.5902 21.0453 70.1046 19.944C69.3501 18.2356 68.9685 16.0676 69.775 13.7695C70.3907 12.0178 71.4314 10.5348 72.2379 10.1793C73.0444 9.82374 74.4666 10.292 75.9668 11.5061C76.9641 12.2953 77.7446 13.2145 78.2389 14.3158C79.1581 16.3798 79.2709 18.2616 79.0627 20.2128C80.0253 20.0827 81.2394 19.7272 82.7397 19.0594L83.4594 18.7386L84.7342 21.609L84.0838 21.8952C81.9071 22.8664 80.1381 23.4128 76.834 23.6642C73.9463 26.5087 69.1767 29.6219 65.5691 31.2262ZM66.9653 3.2417C68.188 3.50186 69.4455 3.91811 70.7289 4.44711C70.5902 5.4704 70.3214 6.48503 69.8444 7.47363C68.5956 7.03136 67.4076 6.70183 66.1675 6.3376C66.4103 5.26227 66.6705 4.21296 66.9653 3.2417ZM77.7446 16.5445C77.3804 15.738 76.73 15.1137 76.305 14.7668C75.169 13.8475 74.1023 13.3272 73.1831 13.7348C71.4314 14.5153 70.6509 17.3597 70.9891 19.1982C71.8823 20.3602 73.3999 21.1667 75.5853 20.8892C76.9728 19.8139 78.1522 17.4638 77.7446 16.5445Z" fill="black"/>
<path d="M107.793 22.0622L107.177 22.0882C104.133 22.2183 102.694 21.3424 102.026 19.9983L101.879 20.0069C100.578 21.6893 99.2078 22.4351 97.7856 22.4958C96.7276 22.5392 95.4875 22.2703 95.0279 20.5706H94.9325C93.8832 21.8194 92.5911 22.7126 90.7786 22.7907C89.4258 22.8514 88.5412 22.2443 88.3331 20.8048H88.2377C86.8155 22.6085 84.7689 23.0421 83.1039 23.1115L82.6876 23.1289C81.3348 23.1896 80.9272 22.2183 80.9012 21.5592C80.8752 20.9695 81.2307 20.0416 82.5576 19.9896L83.3901 19.9549C85.6188 19.8335 87.3098 19.1744 88.4719 17.4487L89.6166 15.4802L91.481 14.7344L91.5851 14.8558C90.7179 16.5121 90.1109 17.7002 90.1369 18.4286C90.1716 19.1918 90.7526 19.6341 91.5157 19.5994C92.2268 19.5733 92.9986 19.2872 93.6144 18.7755C94.2127 18.3072 94.7851 17.4227 95.1146 16.5468L95.6436 15.0726L97.4734 14.136L97.5775 14.2314C96.9184 16.1306 96.6929 17.0498 96.7276 17.9517C96.7536 18.6108 97.2046 19.3565 98.1585 19.3132C98.965 19.2785 99.468 18.9663 99.8322 18.6975C100.543 18.1772 100.907 17.3533 101.15 16.278C101.228 15.8791 101.358 15.4108 101.558 14.3181L103.37 12.9826L103.474 13.052C103.197 14.1447 102.963 15.5322 103.006 16.4428C103.084 18.3853 104.81 19.0183 107.143 18.9229L107.68 18.8969L107.793 22.0622ZM94.2387 10.6759C93.1894 9.76532 92.2789 9.01086 91.2642 8.24772C91.8626 7.33716 92.513 6.49598 93.1027 5.83691C94.1433 6.5827 95.0105 7.35451 96.0078 8.34312C95.3574 9.34907 94.8978 10.0081 94.2387 10.6759ZM95.3401 5.39464C94.2908 4.48408 93.3802 3.72961 92.3569 2.96648C92.9553 2.05592 93.6057 1.21474 94.1954 0.555664C95.236 1.30146 96.1032 2.07326 97.1005 3.06187C96.4588 4.06782 95.9992 4.72689 95.3401 5.39464ZM98.9563 10.1556C97.907 9.245 96.9964 8.49054 95.9818 7.7274C96.5802 6.81684 97.2306 5.97566 97.8203 5.31659C98.8609 6.06238 99.7281 6.83419 100.725 7.8228C100.084 8.82875 99.6154 9.48782 98.9563 10.1556Z" fill="black"/>
<path d="M124.374 26.5536L123.897 26.4409C120.975 25.7645 119.769 23.7786 118.59 21.1336C118.035 19.9196 117.523 18.7662 117.098 17.9944L117.003 17.9684C116.118 21.6973 113.369 24.0128 106.588 22.4518L105.938 22.3044C104.619 22.0008 104.481 20.9602 104.628 20.3185C104.758 19.7461 105.348 18.9483 106.64 19.2432L107.594 19.46C109.536 19.9022 111.904 20.1017 113.708 19.4079C114.254 19.2085 115.078 18.8442 115.147 18.506C115.26 18.0031 115.173 17.4047 115.043 16.7716C114.531 14.3868 112.78 11.2823 110.811 8.13433C110.317 7.31049 109.918 6.64275 109.675 6.15712C109.701 5.73219 109.71 5.25523 109.814 4.80428C109.97 4.13654 110.36 3.52083 110.933 2.89645C111.201 2.6016 111.635 2.35011 111.999 2.21136C114.861 1.17939 120.957 0.546336 128.008 0L128.068 0.164768C127.331 1.05798 126.481 1.89049 125.545 2.67965C124.027 2.70566 121.807 2.93113 119.657 3.19129C116.535 3.60755 113.586 4.05849 111.704 4.56147L111.687 4.63084C112.788 5.76688 114.037 6.68611 114.939 7.34518L113.942 8.37715C115.971 11.2909 118.208 15.3321 120.593 19.8936C121.573 21.784 122.735 22.9548 124.652 23.397L125.059 23.4924L124.374 26.5536Z" fill="black"/>
<path d="M124.773 23.8231C126.508 24.5776 128.615 24.673 129.508 23.537L131.225 21.395L133.272 20.944L133.341 21.1608C132.526 22.1755 131.919 23.06 131.702 23.5543C131.355 24.3435 131.277 25.0806 131.633 25.7483C132.101 26.6502 132.838 27.344 134.026 27.8643L134.434 28.0377L133.176 30.9168L132.656 30.6914C130.453 29.7288 129.049 28.3933 129.023 26.3727L128.936 26.338C127.514 27.5087 125.389 27.5261 123.455 26.6762L123.03 26.4854C121.79 25.9478 121.851 24.8985 122.111 24.2914C122.345 23.7538 123.074 23.0773 124.288 23.6063L124.773 23.8231ZM130.974 16.3739C130.436 15.0904 129.942 14.0151 129.361 12.8791C130.297 12.3241 131.251 11.8558 132.075 11.5176C132.682 12.6449 133.124 13.7203 133.593 15.0471C132.569 15.6715 131.858 16.0617 130.974 16.3739ZM135.448 17.9782C134.911 16.6948 134.416 15.6194 133.835 14.4834C134.772 13.9284 135.726 13.4601 136.55 13.1219C137.157 14.2493 137.599 15.3246 138.067 16.6514C137.035 17.2758 136.333 17.666 135.448 17.9782Z" fill="black"/>
<path d="M152.471 44.3736L151.977 44.0093C149.522 42.2056 148.95 40.6273 149.271 39.153L149.15 39.0663C147.086 39.5606 145.542 39.2831 144.397 38.4332C143.547 37.8089 142.75 36.8203 143.452 35.2073L143.374 35.1466C141.77 35.4587 140.209 35.346 138.743 34.2707C137.659 33.4729 137.338 32.4496 138.084 31.1921L138.006 31.1314C135.769 31.6517 133.904 30.6978 132.551 29.7092L132.213 29.4577C131.129 28.6599 131.407 27.6453 131.806 27.1163C132.152 26.6393 133.011 26.145 134.078 26.9255L134.754 27.4198C136.566 28.7206 138.301 29.2669 140.278 28.6512L142.403 27.8361L144.319 28.4258L144.328 28.5819C142.62 29.3363 141.397 29.874 140.963 30.4637C140.512 31.0794 140.694 31.7905 141.301 32.2414C141.874 32.6664 142.654 32.9352 143.461 32.9179C144.215 32.9265 145.221 32.597 146.028 32.12L147.363 31.3049L149.375 31.7211L149.392 31.8599C147.693 32.9265 146.938 33.4989 146.4 34.2273C146.01 34.765 145.898 35.6235 146.661 36.1872C147.311 36.6642 147.901 36.7335 148.343 36.7595C149.228 36.8029 150.025 36.378 150.884 35.7016C151.196 35.4414 151.595 35.1552 152.428 34.4268L154.674 34.5222L154.708 34.6436C153.806 35.3287 152.757 36.2566 152.219 36.9937C151.066 38.5546 152.011 40.133 153.893 41.5205L154.327 41.8413L152.471 44.3736Z" fill="black"/>
<path d="M153.46 42.1704C154.83 43.74 155.992 44.9541 156.998 45.5091C157.804 45.9427 158.42 46.1248 158.732 45.856C159.599 45.0928 160.64 42.6213 161.689 40.011C162.869 39.7596 163.979 39.6121 164.993 39.5774L165.072 39.6728C164.317 41.8322 162.877 44.85 161.048 46.4543C159.66 47.6684 158.099 48.05 156.478 48.1627C154.917 48.0586 153.494 46.9833 151.023 44.1563L150.832 43.9308C149.948 42.9162 150.442 41.9883 150.936 41.5547C151.378 41.1644 152.324 40.8609 153.2 41.8668L153.46 42.1704ZM169.468 32.7266C169.572 33.9667 169.555 35.2935 169.425 36.6723C168.402 36.8458 167.361 36.8804 166.268 36.7244C166.32 35.4062 166.286 34.1661 166.268 32.874C167.378 32.7959 168.462 32.7266 169.468 32.7266Z" fill="black"/>
<path d="M166.338 66.5142L166.217 66.2713C165.323 64.5456 165.098 63.2535 165.532 61.9007C166.191 59.8714 167.734 59.0476 170.934 57.3825C175.079 55.2319 179.294 52.743 183.743 50.02C184.931 50.3409 186.006 50.6444 186.83 51.0173L186.821 51.2168C182.225 54.0438 176.58 56.9663 171.212 59.75L169.98 60.4004C168.584 61.1202 168.359 62.2389 168.497 63.2448C168.584 63.8952 168.836 64.4849 168.983 64.7624L169.139 65.0659L166.338 66.5142Z" fill="black"/>
<path d="M169.13 64.9774C169.867 66.9286 170.517 68.4722 171.263 69.3481C171.862 70.0419 172.373 70.4234 172.763 70.276C173.847 69.8684 175.686 67.9172 177.585 65.8446C178.782 66.0267 179.866 66.2695 180.828 66.5904L180.872 66.7031C179.406 68.4635 176.995 70.779 174.723 71.6375C172.998 72.2879 171.402 72.0971 169.841 71.6288C168.419 70.9784 167.456 69.4782 166.138 65.9573L166.034 65.6798C165.557 64.4137 166.346 63.7286 166.971 63.4945C167.526 63.2864 168.514 63.3384 168.974 64.5785L169.13 64.9774ZM187.436 61.7514C187.098 62.9568 186.621 64.1796 186.014 65.437C185 65.2376 184.002 64.908 183.048 64.3704C183.56 63.1563 183.959 61.9856 184.401 60.7715C185.451 61.0837 186.491 61.3959 187.436 61.7514Z" fill="black"/>
<path d="M175.842 89.096L172.763 89.7377L172.347 87.7432C170.803 87.9426 168.765 87.6391 167.04 86.9454C163.84 85.6792 161.984 83.2858 161.715 82.011C161.255 79.8257 161.758 77.1807 162.695 74.5791L163.571 74.8219C163.259 75.8626 163.146 77.094 163.441 78.5335C163.952 80.9617 165.609 82.8955 168.158 84.5259C169.581 85.4364 170.708 86.0261 172 86.0782L171.757 84.8988C170.734 79.9904 171.775 77.1634 175.139 76.4609C176.77 76.1227 178.131 76.3829 179.267 76.8772C180.785 77.5189 182.034 78.5856 182.346 80.0945C182.805 82.3058 180.186 85.237 175.399 86.9454L175.842 89.096ZM178.209 82.9042C178.912 81.9503 179.206 80.9617 179.024 80.0771C178.738 78.733 177.299 77.6056 176.336 77.8051C175.113 78.0652 174.628 79.34 174.506 80.927C174.42 82.3232 174.723 83.7714 175.053 85.3324C176.345 84.7774 177.489 83.9102 178.209 82.9042Z" fill="black"/>
<path d="M175.86 89.7477C175.842 90.6842 175.947 91.985 176.319 93.3899H176.441C177.594 91.6902 179.164 90.5628 181.297 90.5975C182.355 90.6149 183.404 91.0225 184.497 91.7075C186.396 92.8956 187.74 94.682 187.706 96.8414C187.671 99.1221 186.136 100.995 183.613 102.227L183.127 101.75C184.28 100.44 184.74 99.1741 184.766 97.379C184.809 94.7774 183.639 92.8696 182.771 92.8522C181.618 92.8349 180.378 93.5026 179.251 94.9075C178.496 95.8527 177.889 97.1449 177.88 97.856C177.854 99.7205 178.574 101.967 179.511 104.906L179.389 105.028L176.363 103.675C175.053 99.7985 174.88 97.9254 173.952 94.9162C173.302 92.7915 172.695 90.8664 172.721 88.9065L172.729 88.1433C172.755 86.7905 173.744 86.4436 174.403 86.4523C174.993 86.461 175.894 86.8686 175.877 88.1954L175.86 89.7477Z" fill="black"/>
<path d="M178.426 109.545C176.345 109.155 174.524 109.649 173.856 112.65C173.44 114.523 173.657 116.231 174.246 118.2C174.342 118.547 174.524 118.764 174.715 118.807C176.007 119.093 177.897 118.642 179.77 117.576C181.539 116.535 183.239 115.009 184.488 113.5C184.904 112.988 185.26 112.867 185.546 112.927C186.144 113.066 187.246 114.011 188 114.766L187.983 114.965C186.352 116.639 184.089 118.425 181.739 119.579C179.588 120.628 177.542 121.131 175.53 120.68C174.047 120.351 172.72 119.648 171.558 118.738C170.769 116.318 170.318 113.829 170.821 111.575C171.437 108.843 173.362 107.308 176.909 108.106C177.29 108.192 177.888 108.323 178.634 108.617L178.426 109.545Z" fill="black"/>
<path d="M75.5876 74.0345C75.961 76.6443 76.4013 79.5154 76.4746 81.9286C76.5614 84.6563 76.2935 94.0678 73.5566 95.3989C73.4438 95.4524 73.3093 95.4057 73.2563 95.2931C73.2361 95.2478 73.2283 95.1961 73.2394 95.1476C73.62 93.4831 74.2198 91.7181 74.4811 90.1978C75.3744 85.0093 75.0536 79.5604 73.9606 74.4369C73.6862 73.1494 73.2145 71.9374 72.5469 70.8025C72.2817 70.3523 72.1919 69.8798 72.2728 69.3835C72.2854 69.3053 72.3325 69.2676 72.4123 69.2721C74.1539 69.411 75.4072 69.5728 76.1722 69.7606C82.2417 71.254 88.3853 71.7079 94.6061 71.1193C95.9273 70.9946 97.2148 70.5256 98.4716 69.7154C99.39 69.1251 100.369 70.8165 98.6403 71.4179C97.1023 71.9532 95.4285 72.3087 93.6189 72.4845C88.4375 72.9833 83.3936 72.8104 78.4872 71.9659C78.3823 71.9489 78.0739 71.9917 78.0003 72.0122C77.7247 72.0848 77.6665 72.2367 77.8272 72.4727C79.0522 74.2748 80.6236 75.7897 82.1025 77.3753C82.988 78.3235 84.011 79.3841 85.1668 80.5556C93.9039 89.3963 102.726 97.9738 111.236 107.242C112.411 108.525 114.038 110.509 115.564 112.066C115.633 112.138 115.629 112.251 115.557 112.32C115.51 112.364 115.445 112.38 115.384 112.363C115.246 112.322 115.111 112.238 114.974 112.11C113.271 110.514 111.249 108.909 109.711 107.48C106.525 104.524 103.923 102.038 101.9 100.021C93.1832 91.3322 84.4802 82.6354 75.7944 73.9308C75.7475 73.8839 75.6693 73.8841 75.6222 73.9312C75.5955 73.9578 75.5814 73.997 75.5876 74.0345Z" fill="black"/>
</svg>
